HIERARCHY
ROOT Hips
{
    OFFSET   0.000000   0.000000   0.000000
    CHANNELS 6 Xposition Yposition Zposition Zrotation Xrotation Yrotation
    JOINT Chest
    {
        OFFSET   0.000000   8.007240   0.000000
        CHANNELS 3 Zrotation Xrotation Yrotation
        JOINT Chest2
        {
            OFFSET   0.000000  22.077100   0.000000
            CHANNELS 3 Zrotation Xrotation Yrotation
            JOINT Neck
            {
                OFFSET   0.000000  23.254800   0.000000
                CHANNELS 3 Zrotation Xrotation Yrotation
                JOINT Head
                {
                    OFFSET   0.000000  14.370000   1.956600
                    CHANNELS 3 Zrotation Xrotation Yrotation
                    End Site
                    {
                        OFFSET   0.000000  19.566000   0.000000
                    }
                }
            }
            JOINT LeftCollar
            {
                OFFSET   3.911900  19.017000  -0.467064
                CHANNELS 3 Zrotation Xrotation Yrotation
                JOINT LeftShoulder
                {
                    OFFSET  10.383700   0.000000   0.000000
                    CHANNELS 3 Zrotation Xrotation Yrotation
                    JOINT LeftElbow
                    {
                        OFFSET  26.662100   0.001476   0.000517
                        CHANNELS 3 Zrotation Xrotation Yrotation
                        JOINT LeftWrist
                        {
                            OFFSET  28.869000  -0.000025  -0.000106
                            CHANNELS 3 Zrotation Xrotation Yrotation
                            JOINT LeftFinger0
                            {
                                OFFSET   2.044660  -2.323460   3.252850
                                CHANNELS 3 Zrotation Xrotation Yrotation
                                JOINT LeftFinger01
                                {
                                    OFFSET   3.088130   0.000000   0.000000
                                    CHANNELS 3 Zrotation Xrotation Yrotation
                                    JOINT LeftFinger02
                                    {
                                        OFFSET   2.639460   0.000000   0.000000
                                        CHANNELS 3 Zrotation Xrotation Yrotation
                                        End Site
                                        {
                                            OFFSET   2.582190   0.000000   0.000000
                                        }
                                    }
                                }
                            }
                            JOINT LeftFinger1
                            {
                                OFFSET   8.364480   0.000000   3.252850
                                CHANNELS 3 Zrotation Xrotation Yrotation
                                JOINT LeftFinger11
                                {
                                    OFFSET   4.646930   0.000000   0.000000
                                    CHANNELS 3 Zrotation Xrotation Yrotation
                                    JOINT LeftFinger12
                                    {
                                        OFFSET   2.323460   0.000000   0.000000
                                        CHANNELS 3 Zrotation Xrotation Yrotation
                                        End Site
                                        {
                                            OFFSET   2.273050   0.000000   0.000000
                                        }
                                    }
                                }
                            }
                            JOINT LeftFinger2
                            {
                                OFFSET   8.364490   0.000015   1.078090
                                CHANNELS 3 Zrotation Xrotation Yrotation
                                JOINT LeftFinger21
                                {
                                    OFFSET   5.111620   0.000000   0.000000
                                    CHANNELS 3 Zrotation Xrotation Yrotation
                                    JOINT LeftFinger22
                                    {
                                        OFFSET   2.788160   0.000016   0.000000
                                        CHANNELS 3 Zrotation Xrotation Yrotation
                                        End Site
                                        {
                                            OFFSET   2.727660   0.000000   0.000000
                                        }
                                    }
                                }
                            }
                            JOINT LeftFinger3
                            {
                                OFFSET   7.899780   0.000017  -1.078090
                                CHANNELS 3 Zrotation Xrotation Yrotation
                                JOINT LeftFinger31
                                {
                                    OFFSET   4.646930   0.000000   0.000000
                                    CHANNELS 3 Zrotation Xrotation Yrotation
                                    JOINT LeftFinger32
                                    {
                                        OFFSET   2.323470   0.000000   0.000000
                                        CHANNELS 3 Zrotation Xrotation Yrotation
                                        End Site
                                        {
                                            OFFSET   2.273050   0.000000   0.000000
                                        }
                                    }
                                }
                            }
                            JOINT LeftFinger4
                            {
                                OFFSET   7.435090   0.000000  -3.252850
                                CHANNELS 3 Zrotation Xrotation Yrotation
                                JOINT LeftFinger41
                                {
                                    OFFSET   3.717550   0.000000   0.000000
                                    CHANNELS 3 Zrotation Xrotation Yrotation
                                    JOINT LeftFinger42
                                    {
                                        OFFSET   1.858770   0.000000   0.000000
                                        CHANNELS 3 Zrotation Xrotation Yrotation
                                        End Site
                                        {
                                            OFFSET   1.818440   0.000000   0.000000
                                        }
                                    }
                                }
                            }
                        }
                    }
                }
            }
            JOINT RightCollar
            {
                OFFSET  -3.911900  19.017000  -0.467063
                CHANNELS 3 Zrotation Xrotation Yrotation
                JOINT RightShoulder
                {
                    OFFSET -10.383700   0.000019   0.000000
                    CHANNELS 3 Zrotation Xrotation Yrotation
                    JOINT RightElbow
                    {
                        OFFSET -26.662100   0.001175   0.000102
                        CHANNELS 3 Zrotation Xrotation Yrotation
                        JOINT RightWrist
                        {
                            OFFSET -28.869000   0.000016  -0.000079
                            CHANNELS 3 Zrotation Xrotation Yrotation
                            JOINT RightFinger0
                            {
                                OFFSET  -2.044660  -2.323490   3.252850
                                CHANNELS 3 Zrotation Xrotation Yrotation
                                JOINT RightFinger01
                                {
                                    OFFSET  -3.088140   0.000000   0.000000
                                    CHANNELS 3 Zrotation Xrotation Yrotation
                                    JOINT RightFinger02
                                    {
                                        OFFSET  -2.639460   0.000000   0.000000
                                        CHANNELS 3 Zrotation Xrotation Yrotation
                                        End Site
                                        {
                                            OFFSET  -2.582190   0.000000   0.000000
                                        }
                                    }
                                }
                            }
                            JOINT RightFinger1
                            {
                                OFFSET  -8.364480   0.000000   3.252850
                                CHANNELS 3 Zrotation Xrotation Yrotation
                                JOINT RightFinger11
                                {
                                    OFFSET  -4.646930   0.000000   0.000000
                                    CHANNELS 3 Zrotation Xrotation Yrotation
                                    JOINT RightFinger12
                                    {
                                        OFFSET  -2.323470   0.000000   0.000000
                                        CHANNELS 3 Zrotation Xrotation Yrotation
                                        End Site
                                        {
                                            OFFSET  -2.273050   0.000000   0.000000
                                        }
                                    }
                                }
                            }
                            JOINT RightFinger2
                            {
                                OFFSET  -8.364480   0.000000   1.078090
                                CHANNELS 3 Zrotation Xrotation Yrotation
                                JOINT RightFinger21
                                {
                                    OFFSET  -5.111620   0.000000   0.000000
                                    CHANNELS 3 Zrotation Xrotation Yrotation
                                    JOINT RightFinger22
                                    {
                                        OFFSET  -2.788160   0.000000   0.000000
                                        CHANNELS 3 Zrotation Xrotation Yrotation
                                        End Site
                                        {
                                            OFFSET  -2.727660   0.000000   0.000000
                                        }
                                    }
                                }
                            }
                            JOINT RightFinger3
                            {
                                OFFSET  -7.899780   0.000000  -1.078090
                                CHANNELS 3 Zrotation Xrotation Yrotation
                                JOINT RightFinger31
                                {
                                    OFFSET  -4.646930   0.000000   0.000000
                                    CHANNELS 3 Zrotation Xrotation Yrotation
                                    JOINT RightFinger32
                                    {
                                        OFFSET  -2.323470   0.000000   0.000000
                                        CHANNELS 3 Zrotation Xrotation Yrotation
                                        End Site
                                        {
                                            OFFSET  -2.273050   0.000000   0.000000
                                        }
                                    }
                                }
                            }
                            JOINT RightFinger4
                            {
                                OFFSET  -7.435090   0.000000  -3.252850
                                CHANNELS 3 Zrotation Xrotation Yrotation
                                JOINT RightFinger41
                                {
                                    OFFSET  -3.717550   0.000000   0.000000
                                    CHANNELS 3 Zrotation Xrotation Yrotation
                                    JOINT RightFinger42
                                    {
                                        OFFSET  -1.858770   0.000000   0.000000
                                        CHANNELS 3 Zrotation Xrotation Yrotation
                                        End Site
                                        {
                                            OFFSET  -1.818440   0.000000   0.000000
                                        }
                                    }
                                }
                            }
                        }
                    }
                }
            }
        }
    }
    JOINT LeftHip
    {
        OFFSET   9.783040   0.000000   0.000000
        CHANNELS 3 Zrotation Xrotation Yrotation
        JOINT LeftKnee
        {
            OFFSET   0.000032 -41.789100  -0.002222
            CHANNELS 3 Zrotation Xrotation Yrotation
            JOINT LeftAnkle
            {
                OFFSET   0.000087 -41.133200  -0.000135
                CHANNELS 3 Zrotation Xrotation Yrotation
                JOINT LeftToe
                {
                    OFFSET   0.000000  -6.358960  14.674500
                    CHANNELS 3 Zrotation Xrotation Yrotation
                    End Site
                    {
                        OFFSET   0.000000   0.000000   3.913200
                    }
                }
            }
        }
    }
    JOINT RightHip
    {
        OFFSET  -9.783040   0.000000   0.000000
        CHANNELS 3 Zrotation Xrotation Yrotation
        JOINT RightKnee
        {
            OFFSET   0.000047 -41.789100  -0.000896
            CHANNELS 3 Zrotation Xrotation Yrotation
            JOINT RightAnkle
            {
                OFFSET  -0.000117 -41.133300  -0.000248
                CHANNELS 3 Zrotation Xrotation Yrotation
                JOINT RightToe
                {
                    OFFSET   0.000000  -6.358970  14.674500
                    CHANNELS 3 Zrotation Xrotation Yrotation
                    End Site
                    {
                        OFFSET   0.000000   0.000000   3.913200
                    }
                }
            }
        }
    }
}
MOTION
Frames: 4
Frame Time:   0.016667
  1.015780  89.588200   1.359000  -0.685878  -0.770724   0.729083   0.264998   2.134690  -1.173650   0.574326   4.263490  -2.359640   1.559160  -1.008970   0.031588   2.573410  -2.042100   3.127790  -5.698900   3.034990  -0.423537 -69.622300  15.892000  -8.117000  -2.256560  -6.138860  -7.698470   3.107900  -8.095750   1.598290  43.233300  30.262900 -65.654900 -21.041700   0.012489   0.006794  -5.520860   0.005534   0.005413 -29.854700   3.270160  -5.675680 -24.559200   0.001101   0.004268 -17.191400   0.000696   0.001553 -27.318600  -0.143969   0.266290 -28.353500   0.000499   0.007575 -18.883500   0.002776   0.000160 -27.091100  -2.018880   3.931160 -27.661100  -0.000642  -0.003157 -18.422300   0.005211  -0.008004 -28.969900  -2.982220   5.399800 -43.664900   0.003964  -0.005873 -29.080800   0.002221  -0.003903  10.779700  -0.250999   6.328080  69.695500   8.043620   2.575090  -1.589210  -3.811320  10.737100  -5.171070  -2.707620   3.672510 -43.654000  40.723500  76.844700  30.335600   0.000000   0.000000  10.167800   0.003402   0.000000  30.282500   8.328290  13.930800  25.619000   0.007790  -0.001121  17.933300   0.005003   0.005455  27.887400   5.467280  10.206400  34.828100  -0.000090  -0.001670  23.195500   0.000000   0.004254  28.258600   2.895380   5.368580  35.059000   0.001314  -0.002468  23.349300   0.000793   0.003628  32.623100   0.754292   1.177640  48.946100  -0.003723   0.004757  32.598200  -0.002221   0.003701   1.064330   3.668230   1.825620   0.446225   0.193300   8.193660  -3.160530  -3.273860   2.768870   0.000000   0.000000   0.000000  -0.371095   0.415974  -3.512200   1.615960   2.275220  -8.054280  -3.443490  -2.192540  -4.339470   0.000000   0.000000   0.000000
  1.015850  89.588100   1.369850  -0.683914  -0.765629   0.729082   0.265119   2.132450  -1.173110   0.574467   4.258980  -2.358540   1.566140  -1.015040   0.031614   2.580600  -2.054040   3.126640  -5.690420   3.034740  -0.428458 -69.609700  15.873400  -8.111390  -2.255060  -6.138350  -7.698430   3.103270  -8.100820   1.603820  43.237900  30.266200 -65.627000 -21.048200   0.012485   0.006787  -5.524120   0.005534   0.005418 -29.841700   3.265530  -5.670670 -24.548300   0.001103   0.004269 -17.183700   0.000696   0.001556 -27.312800  -0.142576   0.267052 -28.327500   0.000499   0.007574 -18.866100   0.002774   0.000157 -27.085700  -2.015770   3.929720 -27.637500  -0.000635  -0.003156 -18.406600   0.005209  -0.008001 -28.949400  -2.982190   5.396460 -43.634300   0.003961  -0.005873 -29.060400   0.002221  -0.003901  10.780800  -0.255472   6.310270  69.711600   8.028210   2.540880  -1.579390  -3.820800  10.717900  -5.145560  -2.690890   3.655890 -43.661300  40.732000  76.854400  30.335400  -0.000073   0.000000  10.167700   0.003339  -0.000000  30.284400   8.329580  13.932900  25.618200   0.007876  -0.001119  17.932700   0.004987   0.005472  27.887400   5.467280  10.206400  34.858100  -0.000065  -0.001691  23.215500   0.000031   0.004306  28.258200   2.896740   5.371040  35.070000   0.001374  -0.002452  23.356600   0.000837   0.003672  32.629500   0.754291   1.177640  48.955800  -0.003743   0.004849  32.604600  -0.002251   0.003703   1.058910   3.674890   1.832050   0.446288   0.190292   8.188070  -3.160330  -3.273830   2.768870  -0.000000   0.000000  -0.000000  -0.373522   0.477121  -3.512220   1.619980   2.214650  -8.060320  -3.444460  -2.203010  -4.339710  -0.000000   0.000000  -0.000000
  1.015990  89.588000   1.387580  -0.680084  -0.757857   0.729081   0.266245   2.130210  -1.169290   0.576567   4.254500  -2.350910   1.576220  -1.027890   0.031641   2.591850  -2.079580   3.118450  -5.681550   3.032980  -0.441085 -69.592300  15.845000  -8.102770  -2.249900  -6.137840  -7.698400   3.099590  -8.112580   1.614700  43.242900  30.264300 -65.592400 -21.054700   0.012479   0.006777  -5.527380   0.005534   0.005430 -29.828700   3.260900  -5.665660 -24.537300   0.001109   0.004274 -17.176100   0.000695   0.001564 -27.307100  -0.138292   0.267814 -28.301500   0.000500   0.007568 -18.848800   0.002770   0.000150 -27.080600  -2.009420   3.923050 -27.613800  -0.000620  -0.003153 -18.390800   0.005205  -0.007991 -28.929000  -2.982180   5.389250 -43.603600   0.003951  -0.005869 -29.040000   0.002222  -0.003896  10.786500  -0.284317   6.284090  69.737500   8.013000   2.472340  -1.560250  -3.847820  10.673000  -5.120900  -2.665000   3.633480 -43.667900  40.742600  76.863100  30.334300  -0.000234   0.000000  10.167100   0.003222   0.000000  30.282400   8.338590  13.947300  25.612400   0.008066  -0.001117  17.928700   0.004951   0.005509  27.887400   5.467280  10.206400  34.888000   0.000000  -0.001735  23.235400   0.000089   0.004427  28.256200   2.906250   5.388290  35.081000   0.001492  -0.002419  23.364000   0.000926   0.003770  32.635900   0.754290   1.177640  48.965500  -0.003783   0.005050  32.611000  -0.002314   0.003707   1.050680   3.690630   1.841770   0.445715   0.175528   8.180240  -3.159850  -3.273640   2.768890   0.000000   0.000000  -0.000000  -0.378551   0.538267  -3.512180   1.624120   2.154070  -8.070030  -3.445960  -2.220530  -4.340040  -0.000000   0.000000   0.000000
  1.016190  89.587900   1.401340  -0.674891  -0.752921   0.728113   0.269941   2.130520  -1.157150   0.583556   4.255130  -2.326740   1.580210  -1.043360   0.031627   2.597960  -2.110670   3.093000  -5.684330   3.019030  -0.456607 -69.588100  15.824600  -8.098200  -2.239210  -6.141540  -7.699510   3.118800  -8.128280   1.630340  43.236800  30.246300 -65.586900 -21.045400   0.012479   0.006771  -5.522740   0.005520   0.005449 -29.837900   3.269810  -5.678180 -24.545600   0.001120   0.004279 -17.181900   0.000694   0.001576 -27.311000  -0.128126   0.250887 -28.318300   0.000505   0.007557 -18.860000   0.002762   0.000139 -27.085600  -1.999630   3.903550 -27.630800  -0.000597  -0.003146 -18.402100   0.005197  -0.007971 -28.941000  -2.982260   5.377140 -43.621200   0.003934  -0.005861 -29.051800   0.002223  -0.003886  10.800700  -0.350610   6.273860  69.753900   8.017660   2.387310  -1.541190  -3.893300  10.623700  -5.124510  -2.649620   3.628630 -43.722900  40.739600  76.845700  30.277700  -0.000466  -0.000058  10.138800   0.003091   0.000000  30.236700   8.368990  14.019500  25.580700   0.008328  -0.001115  17.906500   0.004900   0.005560  27.875700   5.473170  10.222000  34.789600   0.000114  -0.001792  23.169900   0.000153   0.004609  28.248900   2.943970   5.459520  35.038100   0.001645  -0.002376  23.335400   0.001044   0.003910  32.604200   0.760804   1.189160  48.918200  -0.003831   0.005330  32.579500  -0.002399   0.003716   1.044950   3.720290   1.847680   0.442959   0.131510   8.178240  -3.159620  -3.257440   2.769460  -0.000000   0.000000  -0.000000  -0.385010   0.487860  -3.507280   1.624680   2.204970  -8.078540  -3.447000  -2.235580  -4.340190   0.000000   0.000000   0.000000
